<svg width="54" height="54" xmlns="http://www.w3.org/2000/svg">
  <path fill-rule="evenodd" fill="currentColor" clip-rule="evenodd" d="M54 27c0 14.912-12.088 27-27 27S0 41.912 0 27 12.088 0 27 0s27 12.088 27 27ZM27 51c13.255 0 24-10.745 24-24S40.255 3 27 3 3 13.745 3 27s10.745 24 24 24Z"/>
  <path d="M34.703 21.202 32.328 32.41c-.18.79-.647.988-1.311.615l-3.622-2.668-1.747 1.68c-.193.194-.355.355-.728.355l.26-3.687 6.712-6.065c.292-.26-.064-.404-.453-.144l-8.297 5.225-3.572-1.118c-.777-.243-.791-.777.162-1.15L33.7 20.07c.648-.242 1.213.144 1.002 1.133v-.001Z"/>
</svg>
