<svg width="54" height="54" xmlns="http://www.w3.org/2000/svg">
<path fill="currentColor" fill-rule="evenodd" clip-rule="evenodd" d="M54 27c0 14.912-12.088 27-27 27S0 41.912 0 27 12.088 0 27 0s27 12.088 27 27ZM27 51c13.255 0 24-10.745 24-24S40.255 3 27 3 3 13.745 3 27s10.745 24 24 24Z"/>
<g clip-path="url(#a)">
<path fill-rule="evenodd" clip-rule="evenodd" d="M35.587 22.711c.125-.41 0-.711-.596-.711h-1.968c-.502 0-.733.26-.858.547 0 0-1.001 2.398-2.42 3.954-.458.452-.667.595-.917.595-.125 0-.314-.143-.314-.553V22.71c0-.492-.138-.711-.555-.711h-3.096c-.313 0-.5.228-.5.445 0 .465.709.573.782 1.884v2.849c0 .625-.115.738-.366.738-.667 0-2.291-2.408-3.255-5.164-.187-.536-.376-.752-.879-.752h-1.97c-.563 0-.675.26-.675.547 0 .512.668 3.053 3.109 6.414 1.627 2.295 3.918 3.539 6.006 3.539 1.252 0 1.406-.276 1.406-.752v-1.735c0-.553.119-.663.515-.663.293 0 .793.144 1.961 1.25 1.336 1.312 1.555 1.9 2.307 1.9h1.968c.563 0 .845-.276.683-.822-.178-.543-.816-1.331-1.661-2.267-.46-.532-1.148-1.106-1.357-1.393-.292-.368-.209-.533 0-.86 0 0 2.4-3.32 2.65-4.447Z"/></g>
<defs><clipPath id="a"><path transform="translate(18 18)" d="M0 0h18v18H0z"/></clipPath></defs></svg>
