<svg width="54" height="54" xmlns="http://www.w3.org/2000/svg">
<path fill="currentColor" fill-rule="evenodd" clip-rule="evenodd" d="M54 27c0 14.912-12.088 27-27 27S0 41.912 0 27 12.088 0 27 0s27 12.088 27 27ZM27 51c13.255 0 24-10.745 24-24S40.255 3 27 3 3 13.745 3 27s10.745 24 24 24Z"/>
<path d="M21.834 33.809a1.257 1.257 0 0 1-1.285.03 1.097 1.097 0 0 1-.443-.457.97.97 0 0 1-.092-.603V22.221a.97.97 0 0 1 .092-.603c.095-.189.249-.348.443-.458a1.257 1.257 0 0 1 1.285.031l12.4 5.502c1.022.445 1.022 1.169 0 1.614l-12.4 5.502Z"/></svg>
