<svg width="24" height="18" viewBox="0 0 24 18" fill="none" xmlns="http://www.w3.org/2000/svg">
<path fill-rule="evenodd" clip-rule="evenodd" d="M21.922 3.54352L23.9716 12.1449C24.0005 12.2336 24.0075 12.3281 23.9919 12.4201C23.9763 12.5122 23.9386 12.5989 23.8821 12.6726C23.8257 12.7463 23.7522 12.8047 23.6683 12.8426C23.5843 12.8806 23.4924 12.897 23.4007 12.8902H21.7709C21.4901 15.2541 19.5048 17.0861 17.0976 17.0861C14.6903 17.0861 12.7051 15.2541 12.4243 12.8902H11.6249C11.3438 15.2815 9.33669 17.1356 6.90244 17.1356C4.46409 17.1356 2.45431 15.2752 2.17859 12.8781H0.589888C0.500179 12.8825 0.410743 12.865 0.32905 12.8271C0.247357 12.7892 0.175777 12.7319 0.120289 12.6602C0.0648017 12.5884 0.0270164 12.5042 0.010089 12.4145C-0.00683829 12.3249 -0.00241625 12.2324 0.0229859 12.1449L2.07652 3.54352C2.21923 2.59677 3.10725 0.864407 5.48586 0.864407C5.64357 0.864407 5.79482 0.928075 5.90634 1.04141C6.01786 1.15474 6.08051 1.30845 6.08051 1.46872C6.08051 1.62899 6.01786 1.7827 5.90634 1.89603C5.79482 2.00936 5.64357 2.07303 5.48586 2.07303C3.57108 2.07303 3.27375 3.57575 3.24996 3.74093L1.35897 11.6856H2.18631C2.48985 9.3192 4.48563 7.49158 6.90244 7.49158C9.31792 7.49158 11.3128 9.31719 11.6181 11.6817L12.4307 11.6854C12.734 9.34649 14.7078 7.54103 17.0976 7.54103C19.492 7.54103 21.4688 9.35354 21.7662 11.6991V11.6776H22.6356L20.7486 3.74093C20.7208 3.57575 20.4354 2.07303 18.5127 2.07303C18.355 2.07303 18.2037 2.00936 18.0922 1.89603C17.9807 1.7827 17.918 1.62899 17.918 1.46872C17.918 1.30845 17.9807 1.15474 18.0922 1.04141C18.2037 0.928075 18.355 0.864407 18.5127 0.864407C20.8913 0.864407 21.7793 2.59677 21.922 3.54352ZM10.4429 12.8902C10.4725 12.7024 10.4878 12.5098 10.4878 12.3136C10.4878 12.0982 10.4693 11.8872 10.4339 11.6821C10.1391 9.97552 8.67014 8.67853 6.90244 8.67853C5.13369 8.67853 3.66408 9.97707 3.37046 11.6851C3.33537 11.8893 3.31707 12.0993 3.31707 12.3136C3.31707 12.5066 3.33192 12.6962 3.36051 12.8811C3.62925 14.6191 5.1127 15.9486 6.90244 15.9486C8.68903 15.9486 10.1704 14.6238 10.4429 12.8902ZM20.5887 12.8902C20.6186 12.7025 20.6341 12.5099 20.6341 12.3136C20.6341 10.3333 19.0508 8.72799 17.0976 8.72799C15.1444 8.72799 13.561 10.3333 13.561 12.3136C13.561 12.5099 13.5765 12.7025 13.6065 12.8902C13.8785 14.5963 15.338 15.8992 17.0976 15.8992C18.8572 15.8992 20.3166 14.5963 20.5887 12.8902Z" fill="black"/>
</svg>
