<svg width="238" height="276" fill="none" xmlns="http://www.w3.org/2000/svg"><path d="m211.314 81.628 4.273-4.287c6.165-6.175 7.291-15.148 2.499-19.94-4.792-4.79-13.752-3.678-19.91 2.496l-4.305 4.311a118.265 118.265 0 0 0-59.684-25.578v-7.67h6.118c8.714 0 15.846-6.966 15.846-15.476 0-8.51-7.132-15.484-15.846-15.484H97.721c-8.714 0-15.846 6.966-15.846 15.484S89.008 30.96 97.722 30.96h6.118v7.67a118.935 118.935 0 0 0-69.052 34A119.238 119.238 0 0 0 .946 141.836a119.313 119.313 0 0 0 15.518 75.474 119.047 119.047 0 0 0 58.389 50.187 118.839 118.839 0 0 0 76.847 3.916 118.988 118.988 0 0 0 63.175-43.991 119.28 119.28 0 0 0 23.089-73.506 119.27 119.27 0 0 0-26.65-72.287Zm-92.301 163.319a87.901 87.901 0 0 1-48.884-14.85 88.092 88.092 0 0 1-32.407-39.546 88.23 88.23 0 0 1-5.006-50.911A88.153 88.153 0 0 1 56.8 94.524a87.95 87.95 0 0 1 45.053-24.113 87.87 87.87 0 0 1 50.838 5.017 88.012 88.012 0 0 1 39.486 32.457 88.197 88.197 0 0 1 14.825 48.956 88.177 88.177 0 0 1-25.774 62.301 87.923 87.923 0 0 1-62.214 25.805Z" fill="#DEDEDE"/><circle cx="119" cy="157" r="93" stroke="#D22856" stroke-width="16"/><path d="M115.812 191H67.906v-10.078l17.203-17.391c3.47-3.562 6.25-6.531 8.344-8.906 2.125-2.406 3.656-4.594 4.594-6.563.969-1.968 1.453-4.078 1.453-6.328 0-2.718-.766-4.75-2.297-6.093-1.5-1.375-3.516-2.063-6.047-2.063-2.656 0-5.234.61-7.734 1.828-2.5 1.219-5.11 2.953-7.828 5.203l-7.875-9.328a73.13 73.13 0 0 1 6.234-4.781c2.219-1.5 4.781-2.703 7.688-3.609 2.937-.938 6.453-1.407 10.546-1.407 4.5 0 8.36.813 11.579 2.438 3.25 1.625 5.75 3.844 7.5 6.656 1.75 2.781 2.625 5.938 2.625 9.469 0 3.781-.75 7.234-2.25 10.359s-3.688 6.219-6.563 9.282c-2.844 3.062-6.281 6.453-10.312 10.171l-8.813 8.297v.656h29.859V191Zm56.485-14.203h-8.25V191h-14.156v-14.203h-29.25v-10.078l30.047-44.25h13.359v43.078h8.25v11.25Zm-22.406-11.25v-11.625c0-1.094.015-2.391.047-3.891l.187-4.5c.063-1.5.125-2.828.187-3.984.094-1.188.157-2.016.188-2.485h-.375a69.705 69.705 0 0 1-1.875 3.75 52.795 52.795 0 0 1-2.297 3.75l-12.562 18.985h16.5Z" fill="#D22856"/></svg>