<svg xmlns="http://www.3w.org/2000/svg">
  <!--Логотип Пинк маленький-->
  <symbol viewBox="0 0 74 23" fill="none" id="logo-pink-small">
    <path d="M0.00496827 1.54857C0.00487772 1.21254 0.135804 0.889818 0.369742 0.649431C0.60368 0.409043 0.922049 0.27008 1.25676 0.262266H8.39001C13.4469 0.262266 16.7751 2.9645 16.7751 7.39179V7.45162C16.7751 12.2977 12.7415 14.8105 7.97274 14.8105H2.53836V21.611C2.55394 21.7874 2.53277 21.9651 2.47619 22.1329C2.41961 22.3006 2.32887 22.4547 2.20973 22.5854C2.09058 22.716 1.94565 22.8204 1.78416 22.8918C1.62266 22.9631 1.44812 23 1.27166 23C1.0952 23 0.920671 22.9631 0.759173 22.8918C0.597674 22.8204 0.452744 22.716 0.333602 22.5854C0.21446 22.4547 0.123708 22.3006 0.0671295 22.1329C0.0105515 21.9651 -0.0106138 21.7874 0.00496827 21.611V1.54857ZM8.07209 12.5171C11.7778 12.5171 14.2119 10.5228 14.2119 7.53139V7.47156C14.2119 4.26078 11.8175 2.59556 8.25092 2.59556H2.58804V12.4772L8.07209 12.5171Z" fill="white"/>
    <path d="M21.5935 1.38904C21.5779 1.21262 21.5991 1.03487 21.6556 0.867114C21.7122 0.699353 21.803 0.545245 21.9221 0.414596C22.0412 0.283947 22.1862 0.179616 22.3477 0.108238C22.5092 0.0368607 22.6837 0 22.8602 0C23.0366 0 23.2112 0.0368607 23.3727 0.108238C23.5342 0.179616 23.6791 0.283947 23.7982 0.414596C23.9174 0.545245 24.0081 0.699353 24.0647 0.867114C24.1213 1.03487 24.1425 1.21262 24.1269 1.38904V21.611C24.1425 21.7874 24.1213 21.9651 24.0647 22.1329C24.0081 22.3006 23.9174 22.4548 23.7982 22.5854C23.6791 22.7161 23.5342 22.8204 23.3727 22.8918C23.2112 22.9631 23.0366 23 22.8602 23C22.6837 23 22.5092 22.9631 22.3477 22.8918C22.1862 22.8204 22.0412 22.7161 21.9221 22.5854C21.803 22.4548 21.7122 22.3006 21.6556 22.1329C21.5991 21.9651 21.5779 21.7874 21.5935 21.611V1.38904Z" fill="white"/>
    <path d="M30.674 1.41895C30.6816 1.08908 30.8163 0.775007 31.0497 0.542621C31.2831 0.310235 31.597 0.177597 31.9258 0.172531H32.2735C32.5316 0.177833 32.7843 0.248188 33.0082 0.377127C33.2322 0.506065 33.4202 0.689448 33.5551 0.910412L47.1559 18.3104V1.35912C47.1559 1.0312 47.2857 0.7167 47.5168 0.484821C47.7478 0.252942 48.0611 0.122673 48.3879 0.122673C48.7146 0.122673 49.0279 0.252942 49.259 0.484821C49.49 0.7167 49.6198 1.0312 49.6198 1.35912V21.6508C49.6252 21.8051 49.5993 21.9589 49.5435 22.1028C49.4878 22.2467 49.4034 22.3777 49.2956 22.4878C49.1877 22.5979 49.0587 22.6848 48.9163 22.7432C48.7739 22.8016 48.6211 22.8303 48.4673 22.8275H48.3382C48.0744 22.8092 47.8184 22.7294 47.5908 22.5944C47.3631 22.4593 47.17 22.2728 47.0268 22.0497L33.1179 4.24085V21.6508C33.1158 21.9722 32.991 22.2805 32.7692 22.5124C32.5474 22.7442 32.2456 22.882 31.9258 22.8973C31.6008 22.892 31.291 22.7581 31.064 22.5246C30.8369 22.2911 30.711 21.9771 30.7137 21.6508V1.41895H30.674Z" fill="white"/>
    <path d="M55.9384 1.38904C55.9228 1.21262 55.944 1.03487 56.0005 0.867114C56.0571 0.699353 56.1479 0.545245 56.267 0.414596C56.3862 0.283947 56.5311 0.179616 56.6926 0.108238C56.8541 0.0368607 57.0286 0 57.2051 0C57.3815 0 57.5561 0.0368607 57.7176 0.108238C57.8791 0.179616 58.024 0.283947 58.1431 0.414596C58.2623 0.545245 58.353 0.699353 58.4096 0.867114C58.4662 1.03487 58.4874 1.21262 58.4718 1.38904V13.6837L71.2282 0.551443C71.4899 0.279712 71.8455 0.119105 72.2216 0.10273C72.5468 0.115453 72.8548 0.252812 73.0821 0.486531C73.3094 0.72025 73.4388 1.03254 73.4436 1.35912C73.4366 1.52896 73.3961 1.69572 73.3245 1.84975C73.2529 2.00379 73.1516 2.14205 73.0264 2.25655L65.0785 10.1539L73.6523 20.6836C73.8764 20.9441 73.9998 21.2768 74 21.6209C73.9961 21.7933 73.9583 21.9633 73.8887 22.121C73.8191 22.2786 73.719 22.4209 73.5943 22.5395C73.4696 22.6582 73.3228 22.7509 73.1622 22.8123C73.0016 22.8737 72.8305 22.9026 72.6588 22.8973C72.4588 22.8891 72.2639 22.8322 72.0908 22.7314C71.9177 22.6306 71.7716 22.4891 71.6653 22.3189L63.3001 11.859L58.4718 16.7051V21.591C58.4718 21.7573 58.4391 21.922 58.3757 22.0756C58.3123 22.2293 58.2194 22.3689 58.1022 22.4865C57.9851 22.6041 57.846 22.6973 57.6929 22.761C57.5398 22.8246 57.3757 22.8574 57.21 22.8574C57.0443 22.8574 56.8803 22.8246 56.7272 22.761C56.5741 22.6973 56.435 22.6041 56.3179 22.4865C56.2007 22.3689 56.1078 22.2293 56.0443 22.0756C55.9809 21.922 55.9483 21.7573 55.9483 21.591V1.38904H55.9384Z" fill="white"/>
  </symbol>
  <!--Логотип Пинк средний-->
  <symbol viewBox="0 0 145 40" fill="none" id="logo-pink-middle">
    <path fill-rule="evenodd" clip-rule="evenodd" d="m53.892 6.586 5.038 21.145a1.418 1.418 0 0 1-.22 1.297 1.356 1.356 0 0 1-1.183.535H53.52c-.69 5.812-5.57 10.315-11.489 10.315-5.917 0-10.798-4.503-11.488-10.314h-1.965C27.887 35.442 22.953 40 16.968 40c-5.994 0-10.934-4.573-11.612-10.466H1.45a1.364 1.364 0 0 1-1.154-.536 1.418 1.418 0 0 1-.24-1.267L5.106 6.586C5.455 4.26 7.639 0 13.486 0c.388 0 .76.157 1.034.435.274.279.428.657.428 1.05 0 .395-.154.772-.428 1.051a1.45 1.45 0 0 1-1.034.435c-4.707 0-5.438 3.694-5.497 4.1L3.341 26.602h2.034c.746-5.817 5.652-10.31 11.593-10.31 5.939 0 10.843 4.488 11.593 10.3l1.998.01c.745-5.75 5.598-10.189 11.473-10.189 5.886 0 10.746 4.456 11.477 10.222v-.053h2.137l-4.639-19.51c-.068-.407-.77-4.1-5.497-4.1a1.45 1.45 0 0 1-1.033-.436 1.498 1.498 0 0 1-.428-1.05c0-.394.154-.772.428-1.05A1.45 1.45 0 0 1 45.51 0c5.848 0 8.03 4.259 8.382 6.586Zm-28.22 22.977a9.122 9.122 0 0 0-.022-2.97c-.725-4.195-4.336-7.383-8.681-7.383-4.349 0-7.961 3.192-8.683 7.391a9.114 9.114 0 0 0-.025 2.94c.66 4.273 4.308 7.541 8.707 7.541 4.392 0 8.034-3.257 8.704-7.518Zm24.942 0c.073-.461.112-.934.112-1.417 0-4.868-3.893-8.815-8.694-8.815-4.802 0-8.695 3.947-8.695 8.815 0 .482.039.956.112 1.418.669 4.194 4.257 7.397 8.583 7.397 4.325 0 7.913-3.203 8.582-7.397Z" fill="#fff"/>
    <path d="M71.005 18.549c0-.337.13-.66.365-.9.234-.24.552-.379.887-.387h7.133c5.057 0 8.385 2.703 8.385 7.13v.06c0 4.846-4.034 7.358-8.802 7.358h-5.435v6.801a1.282 1.282 0 0 1-.754 1.28 1.27 1.27 0 0 1-1.717-.758 1.282 1.282 0 0 1-.062-.522V18.549Zm8.067 10.968c3.706 0 6.14-1.994 6.14-4.986v-.06c0-3.21-2.395-4.875-5.961-4.875h-5.663v9.881l5.484.04ZM92.594 18.389a1.282 1.282 0 0 1 .754-1.28 1.269 1.269 0 0 1 1.717.758c.056.168.077.346.062.522v20.222a1.282 1.282 0 0 1-.754 1.28 1.27 1.27 0 0 1-1.717-.758 1.282 1.282 0 0 1-.063-.522V18.389ZM101.674 18.419a1.278 1.278 0 0 1 1.252-1.247h.347a1.535 1.535 0 0 1 1.282.738l13.601 17.4V18.36c0-.329.13-.643.361-.875a1.229 1.229 0 0 1 1.742 0c.231.232.361.546.361.874v20.292c.005.154-.021.308-.076.452a1.13 1.13 0 0 1-1.077.725h-.129a1.69 1.69 0 0 1-1.311-.778l-13.909-17.81v17.41a1.257 1.257 0 0 1-1.192 1.247 1.23 1.23 0 0 1-1.212-1.246V18.419h-.04ZM126.938 18.389a1.284 1.284 0 0 1 .755-1.28 1.267 1.267 0 0 1 1.45.306 1.287 1.287 0 0 1 .329.974v12.295l12.756-13.133c.262-.271.617-.432.994-.448.325.012.633.15.86.383.227.234.357.546.362.873a1.28 1.28 0 0 1-.418.897l-7.948 7.898 8.574 10.53c.224.26.348.593.348.937a1.309 1.309 0 0 1-1.341 1.276 1.228 1.228 0 0 1-.994-.578l-8.365-10.46-4.828 4.846v4.886a1.278 1.278 0 0 1-.37.895 1.26 1.26 0 0 1-2.154-.895V18.389h-.01Z" fill="#fff"/>
  </symbol>
   <!--Логотип Пинк большой-->
  <symbol viewBox="0 0 147 40" fill="none" id="logo-pink-big">
    <path d="M72.193 18.425c0-.333.133-.652.369-.89.237-.238.558-.376.897-.384h7.211c5.113 0 8.477 2.676 8.477 7.06v.06c0 4.798-4.078 7.286-8.899 7.286h-5.494v6.734a1.243 1.243 0 0 1-.332.965 1.286 1.286 0 0 1-.948.41 1.304 1.304 0 0 1-.949-.41 1.26 1.26 0 0 1-.332-.965V18.425Zm8.156 10.861c3.746 0 6.207-1.975 6.207-4.937v-.059c0-3.18-2.42-4.828-6.026-4.828h-5.725v9.785l5.544.04ZM94.019 18.267a1.243 1.243 0 0 1 .332-.965 1.286 1.286 0 0 1 .948-.41 1.304 1.304 0 0 1 .949.41 1.258 1.258 0 0 1 .332.965V38.29a1.245 1.245 0 0 1-.332.965 1.284 1.284 0 0 1-.949.41 1.304 1.304 0 0 1-.948-.41 1.26 1.26 0 0 1-.332-.965V18.267ZM103.199 18.297a1.25 1.25 0 0 1 .38-.868c.236-.23.553-.362.885-.367h.352c.261.005.516.075.743.203.226.127.416.31.552.528l13.751 17.23V18.237c0-.324.131-.636.364-.865a1.259 1.259 0 0 1 1.762 0c.233.23.364.54.364.865v20.094a1.117 1.117 0 0 1-.711 1.082 1.161 1.161 0 0 1-.454.083h-.13a1.739 1.739 0 0 1-.756-.23 1.709 1.709 0 0 1-.57-.54L105.67 21.09v17.24a1.238 1.238 0 0 1-.353.853c-.224.23-.529.366-.853.381a1.257 1.257 0 0 1-.871-.369 1.21 1.21 0 0 1-.354-.865V18.296h-.04ZM128.74 18.267a1.243 1.243 0 0 1 .332-.965 1.287 1.287 0 0 1 .949-.41 1.304 1.304 0 0 1 .948.41 1.247 1.247 0 0 1 .332.965v12.175l12.897-13.005c.264-.269.624-.428 1.004-.444.329.013.64.149.87.38.23.232.361.54.365.864a1.261 1.261 0 0 1-.421.889l-8.036 7.82 8.668 10.427c.227.258.352.587.352.928a1.287 1.287 0 0 1-.847 1.18 1.261 1.261 0 0 1-1.083-.08 1.23 1.23 0 0 1-.43-.409l-8.457-10.357-4.882 4.798v4.839a1.238 1.238 0 0 1-.373.886 1.282 1.282 0 0 1-.902.368 1.288 1.288 0 0 1-.902-.368 1.244 1.244 0 0 1-.374-.886V18.267h-.01Z" fill="#fff"/>
    <path d="M98.94 9.746a3.678 3.678 0 0 1-2.575-1.047 3.554 3.554 0 0 1-1.07-2.528c0 .948-.384 1.857-1.066 2.528a3.668 3.668 0 0 1-2.57 1.047c.964.002 1.89.381 2.57 1.053a3.554 3.554 0 0 1 1.065 2.53c.003-.949.388-1.86 1.07-2.53a3.688 3.688 0 0 1 2.576-1.053Z" fill="#D22856"/>
    <path d="M43.287 19.067h.733a2.47 2.47 0 0 0-.905-.887 2.523 2.523 0 0 0-1.234-.328c-.418 0-.826-.129-1.166-.368a1.978 1.978 0 0 1-.732-.965c-.724.206-1.427.477-2.1.81h.191c.533 0 1.044.208 1.42.578.377.37.59.873.59 1.397.004.095.004.19 0 .286a8.976 8.976 0 0 1 3.203-.523Z" fill="#fff"/>
    <path d="m60.733 27.647-5.192-21.08C55.179 4.245 52.929 0 46.903 0c-.4 0-.783.156-1.066.434a1.469 1.469 0 0 0-.44 1.047c0 .393.158.77.44 1.047a1.52 1.52 0 0 0 1.066.434c4.871 0 5.594 3.683 5.665 4.088l4.78 19.452H55.25a11.721 11.721 0 0 0-1.724-4.78 11.946 11.946 0 0 0-3.599-3.633 2.502 2.502 0 0 0-1.116.908c-.274.404-.42.878-.42 1.363.005.086.005.171 0 .257a9.148 9.148 0 0 1 2.922 3.207 8.974 8.974 0 0 1 1.095 4.169 9.042 9.042 0 0 1-.14 1.48 8.849 8.849 0 0 1-3.05 5.393 9.132 9.132 0 0 1-5.885 2.141 9.132 9.132 0 0 1-5.885-2.141 8.849 8.849 0 0 1-3.049-5.392 9.031 9.031 0 0 1-.14-1.481c.015-1.37.341-2.72.954-3.95a2.023 2.023 0 0 1-1.33-.625 1.957 1.957 0 0 1-.538-1.35.694.694 0 0 0-.191-.483 11.566 11.566 0 0 0-1.798 4.936h-1.868a11.782 11.782 0 0 0-3.933-7.54 12.17 12.17 0 0 0-8.05-3.03 12.17 12.17 0 0 0-8.05 3.03 11.782 11.782 0 0 0-3.932 7.54H3.443L8.233 7.05c.061-.405.814-4.088 5.666-4.088.4 0 .783-.156 1.065-.434.282-.277.441-.654.441-1.047 0-.393-.159-.77-.441-1.047A1.52 1.52 0 0 0 13.899 0C7.872 0 5.623 4.246 5.26 6.566L.058 27.647a1.38 1.38 0 0 0 .247 1.263c.14.176.322.316.529.41.207.092.433.135.66.124h4.018c.082.611.21 1.215.382 1.807a.731.731 0 0 0 .1-.355c0-.524.212-1.026.589-1.397.376-.37.887-.578 1.42-.578.163.002.325.025.482.069a8.835 8.835 0 0 1-.07-1.037c.002-.496.046-.991.13-1.48a8.848 8.848 0 0 1 3.042-5.414 9.131 9.131 0 0 1 5.897-2.152c2.165 0 4.258.763 5.898 2.152a8.848 8.848 0 0 1 3.041 5.413c.085.49.128.985.131 1.481a8.87 8.87 0 0 1-2.665 6.267 9.18 9.18 0 0 1-6.374 2.62 9.146 9.146 0 0 1-5.454-1.708c-.363.31-.826.48-1.306.483a.76.76 0 0 0-.526.22.734.734 0 0 0-.217.521 1.946 1.946 0 0 1-.181.8 12.088 12.088 0 0 0 7.643 2.705 12.174 12.174 0 0 0 8.012-2.951 11.789 11.789 0 0 0 4-7.436h1.829a11.784 11.784 0 0 0 3.944 7.51A12.171 12.171 0 0 0 43.292 40c2.964 0 5.823-1.073 8.033-3.015a11.784 11.784 0 0 0 3.944-7.511h4.018c.232.016.465-.024.678-.117.212-.093.398-.236.541-.417a1.38 1.38 0 0 0 .227-1.293Z" fill="#fff"/>
    <path d="M50.92 15.917a4.576 4.576 0 0 1-1.729-.335 4.515 4.515 0 0 1-1.466-.96 4.431 4.431 0 0 1-.98-1.44 4.37 4.37 0 0 1-.344-1.699 4.406 4.406 0 0 1-1.328 3.136 4.56 4.56 0 0 1-3.192 1.298 4.57 4.57 0 0 1 3.193 1.304 4.416 4.416 0 0 1 1.327 3.14c0-1.18.476-2.31 1.323-3.143a4.56 4.56 0 0 1 3.196-1.301ZM38.074 19.383a2.786 2.786 0 0 1-1.953-.796 2.692 2.692 0 0 1-.809-1.92c0 .719-.29 1.408-.805 1.917a2.786 2.786 0 0 1-1.947.799c.73 0 1.43.285 1.946.792.516.507.806 1.196.806 1.913a2.693 2.693 0 0 1 .813-1.914 2.786 2.786 0 0 1 1.95-.791ZM10.785 33.64a2.786 2.786 0 0 1-1.94-.802 2.692 2.692 0 0 1-.802-1.913c0 .719-.29 1.408-.805 1.917a2.786 2.786 0 0 1-1.947.799c.73.002 1.43.29 1.947.799.515.508.805 1.198.805 1.916 0-.717.288-1.404.802-1.913a2.786 2.786 0 0 1 1.94-.802Z" fill="#D22856"/>
  </symbol>
  <!--Логотип HTMLacademy-->
  <symbol viewBox="0 0 27 34" fill="none" id="logo-html-academy">
    <path d="M13.643.016 13.5 0 0 1.407v24.606L13.5 34 27 26.013V1.407L13.643.016Zm11.591 25L13.5 31.956 1.766 25.015V14.93l11.685 6.916.02 1.253-8.017-4.743-.011 1.225 8.046 4.809.02 1.286-8.045-4.758-.01 1.226L13.5 26.95l8.124-4.833V16.91l3.62-2.15-.01 10.256Zm0-11.564-3.22 1.88-1.482.875-7.065-4.187-.011 1.225 6.04 3.573-.053.031-.13.076-.86.492-4.986-2.948-.011 1.225 3.936 2.328-.933.61-.021.012-2.971-1.742-.011 1.225 1.947 1.135-1.988 1.186-11.618-6.872 11.638-6.958 11.8 6.834Zm0-1.225L13.44 5.31 1.766 12.22V2.99L13.5 1.764 25.234 2.99v9.237Z" fill="#D22856"/>
  </symbol>
  <!--Логотип вконтакте-->
  <symbol viewBox="0 0 54 54" fill="none" id="vk">
    <path opacity=".1" fill-rule="evenodd" clip-rule="evenodd" d="M54 27c0 14.912-12.088 27-27 27S0 41.912 0 27 12.088 0 27 0s27 12.088 27 27ZM27 51c13.255 0 24-10.745 24-24S40.255 3 27 3 3 13.745 3 27s10.745 24 24 24Z" fill="#283645"/>
    <g clip-path="url(#a)">
      <path fill-rule="evenodd" clip-rule="evenodd" d="M35.587 22.711c.125-.41 0-.711-.596-.711h-1.968c-.502 0-.733.26-.858.547 0 0-1.001 2.398-2.42 3.954-.458.452-.667.595-.917.595-.125 0-.314-.143-.314-.553V22.71c0-.492-.138-.711-.555-.711h-3.096c-.313 0-.5.228-.5.445 0 .465.709.573.782 1.884v2.849c0 .625-.115.738-.366.738-.667 0-2.291-2.408-3.255-5.164-.187-.536-.376-.752-.879-.752h-1.97c-.563 0-.675.26-.675.547 0 .512.668 3.053 3.109 6.414 1.627 2.295 3.918 3.539 6.006 3.539 1.252 0 1.406-.276 1.406-.752v-1.735c0-.553.119-.663.515-.663.293 0 .793.144 1.961 1.25 1.336 1.312 1.555 1.9 2.307 1.9h1.968c.563 0 .845-.276.683-.822-.178-.543-.816-1.331-1.661-2.267-.46-.532-1.148-1.106-1.357-1.393-.292-.368-.209-.533 0-.86 0 0 2.4-3.32 2.65-4.447Z" fill="#D22856"/>
    </g>
    <defs>
      <clipPath id="a">
        <path fill="#fff" transform="translate(18 18)" d="M0 0h18v18H0z"/>
      </clipPath>
    </defs>
  </symbol>
  <!--Логотип телеграм-->
  <symbol viewBox="0 0 54 54" fill="none" id="telegram">
    <path opacity=".1" fill-rule="evenodd" clip-rule="evenodd" d="M54 27c0 14.912-12.088 27-27 27S0 41.912 0 27 12.088 0 27 0s27 12.088 27 27ZM27 51c13.255 0 24-10.745 24-24S40.255 3 27 3 3 13.745 3 27s10.745 24 24 24Z" fill="#283645"/>
    <path d="M34.703 21.202 32.328 32.41c-.18.79-.647.988-1.311.615l-3.622-2.668-1.747 1.68c-.193.194-.355.355-.728.355l.26-3.687 6.712-6.065c.292-.26-.064-.404-.453-.144l-8.297 5.225-3.572-1.118c-.777-.243-.791-.777.162-1.15L33.7 20.07c.648-.242 1.213.144 1.002 1.133v-.001Z" fill="#D22856"/>
  </symbol>
  <!--Логотип youtube-->
  <symbol viewBox="0 0 54 54" fill="none" id="youtube">
    <path opacity=".1" fill-rule="evenodd" clip-rule="evenodd" d="M54 27c0 14.912-12.088 27-27 27S0 41.912 0 27 12.088 0 27 0s27 12.088 27 27ZM27 51c13.255 0 24-10.745 24-24S40.255 3 27 3 3 13.745 3 27s10.745 24 24 24Z" fill="#283645"/>
    <path d="M21.834 33.809a1.257 1.257 0 0 1-1.285.03 1.097 1.097 0 0 1-.443-.457.97.97 0 0 1-.092-.603V22.221a.97.97 0 0 1 .092-.603c.095-.189.249-.348.443-.458a1.257 1.257 0 0 1 1.285.031l12.4 5.502c1.022.445 1.022 1.169 0 1.614l-12.4 5.502Z" fill="#D22856"/>
  </symbol>
  <!--Логотип apple-->
  <symbol viewBox="0 0 47 56" fill="none" id="logo-apple">
    <path d="M39.245 29.74a12.09 12.09 0 0 0 2.127 6.787A12.668 12.668 0 0 0 47 41.063a29.794 29.794 0 0 1-4 7.96c-2.401 3.413-4.905 6.816-8.844 6.904-3.938.09-5.088-2.219-9.526-2.219-4.437 0-5.8 2.15-9.465 2.288-3.663.139-6.686-3.718-9.088-7.111-4.956-6.905-8.752-19.639-3.664-28.2a13.925 13.925 0 0 1 5.024-5.037 14.489 14.489 0 0 1 6.935-1.977c3.724-.069 7.246 2.427 9.526 2.427 2.28 0 6.564-3.009 11.062-2.565 2.084.073 4.121.613 5.954 1.576a13.387 13.387 0 0 1 4.61 3.977c-.275.168-6.31 3.571-6.249 10.653h-.03ZM31.978 8.936C34.16 6.46 35.238 3.247 34.981 0c-3.305.302-6.364 1.82-8.55 4.241-1.862 2.092-3.5 5.445-3.053 8.66 3.247.247 6.555-1.597 8.57-3.945" fill="#fff"/>
  </symbol>
  <!--Логотип android-->
  <symbol viewBox="0 0 43 47" fill="none" id="logo-android">
    <path d="M34.886 14.062H8.114v19.133c-.011.913.332 1.795.96 2.468a3.697 3.697 0 0 0 2.422 1.159v7.453c.044.737.374 1.43.922 1.936a2.986 2.986 0 0 0 2.026.789c.753 0 1.478-.282 2.026-.789.548-.506.878-1.199.922-1.936v-7.433h8.236v7.433c.045.737.375 1.43.922 1.936a2.985 2.985 0 0 0 2.026.789c.754 0 1.478-.282 2.026-.789.548-.506.878-1.199.922-1.936v-7.453a3.707 3.707 0 0 0 2.426-1.158c.63-.673.975-1.555.967-2.468V14.402l-.03-.34ZM2.953 15.745c.78 0 1.53.304 2.081.845.552.54.862 1.275.862 2.04v12.402c.001.38-.074.756-.22 1.107a2.88 2.88 0 0 1-.638.94 2.947 2.947 0 0 1-.956.627 2.995 2.995 0 0 1-3.217-.627A2.866 2.866 0 0 1 0 31.032V18.63c0-.38.076-.756.225-1.107.149-.35.366-.669.64-.937.275-.268.6-.48.959-.625a2.995 2.995 0 0 1 1.13-.216ZM40.057 15.745c.78 0 1.53.304 2.081.845.552.54.862 1.275.862 2.04v12.402c.001.38-.074.756-.221 1.107-.147.351-.364.67-.637.94a2.947 2.947 0 0 1-.956.627 2.994 2.994 0 0 1-3.217-.627 2.867 2.867 0 0 1-.865-2.047V18.63c0-.38.076-.756.225-1.107.148-.35.366-.669.64-.937.275-.268.6-.48.959-.625a2.995 2.995 0 0 1 1.129-.216ZM8.175 12.058h26.568a10.404 10.404 0 0 0-3.26-7.293L34.049.498a.307.307 0 0 0-.122-.461.322.322 0 0 0-.42.11l-2.42 4.157A16.708 16.708 0 0 0 21.458.898a16.977 16.977 0 0 0-9.575 3.406L9.504.187a.325.325 0 0 0-.184-.16.333.333 0 0 0-.246.01.315.315 0 0 0-.112.42l2.493 4.238a10.443 10.443 0 0 0-3.28 7.363Zm17.699-5.21c0-.398.161-.78.449-1.062.287-.281.677-.44 1.083-.44.407 0 .797.159 1.084.44.288.282.45.664.45 1.063 0 .398-.162.78-.45 1.062-.287.282-.677.44-1.084.44-.406 0-.796-.158-1.083-.44a1.488 1.488 0 0 1-.45-1.062Zm-11.384 0c0-.398.162-.78.449-1.062.287-.281.677-.44 1.084-.44.406 0 .796.159 1.084.44.287.282.449.664.449 1.063 0 .398-.162.78-.45 1.062-.287.282-.677.44-1.083.44-.407 0-.797-.158-1.084-.44a1.488 1.488 0 0 1-.449-1.062Z" fill="#A4C639"/>
  </symbol>
  <!--Логотип windows-->
  <symbol viewBox="0 0 44 41" fill="none" id="logo-windows">
    <path d="M20.908 19.524H0V0h20.908v19.524Z" fill="#F05423"/>
    <path d="M44 19.524H23.092V0H44v19.524Z" fill="#84C441"/>
    <path d="M20.908 41H0V21.476h20.908V41Z" fill="#2DABE2"/>
    <path d="M44 41H23.092V21.476H44V41Z" fill="#F9BC15"/>
  </symbol>
  <!--Иконки для Формы тел, почта-->
  <symbol viewBox="0 0 20 19" fill="none" id="phone-icon">
    <path d="M10.04 0C6.465 0 2.908.608 1.583 1.815a6.392 6.392 0 0 0-1.58 3.892c-.003.055-.003.11 0 .164 0 .21.088.412.245.56a.86.86 0 0 0 .591.232l3.24-.25h.082a.865.865 0 0 0 .581-.237.78.78 0 0 0 .176-.256.746.746 0 0 0 .059-.3V4.046a.83.83 0 0 1 .067-.335.867.867 0 0 1 .198-.286.922.922 0 0 1 .299-.19.961.961 0 0 1 .353-.068h8.153c.246 0 .482.093.656.258a.856.856 0 0 1 .271.621v1.555a.77.77 0 0 0 .238.553c.152.148.36.234.578.239h.091l3.282.251a.876.876 0 0 0 .59-.232.79.79 0 0 0 .182-.257.756.756 0 0 0 .064-.303 1.45 1.45 0 0 0 0-.164 6.455 6.455 0 0 0-1.56-3.863C17.195.608 13.618 0 10.041 0Zm0 10.304c-.33 0-.653.093-.928.267-.275.174-.489.421-.615.71-.127.29-.16.608-.095.916.064.307.223.59.457.81.234.222.531.373.856.434.324.061.66.03.965-.09.306-.12.567-.323.75-.583a1.526 1.526 0 0 0-.204-2.003 1.669 1.669 0 0 0-.544-.343 1.742 1.742 0 0 0-.641-.118ZM8.788 6.76v-.966a.94.94 0 0 0-.298-.683 1.048 1.048 0 0 0-.72-.283c-.271 0-.53.102-.722.283a.94.94 0 0 0-.298.683v.966l-5.728 5.688a1.932 1.932 0 0 0-.471.647 1.843 1.843 0 0 0-.16.772v1.584c0 .421.175.825.488 1.123a1.73 1.73 0 0 0 1.183.47h.418v.966c0 .13.027.259.08.379.052.12.129.23.226.321.097.092.212.165.339.215a1.096 1.096 0 0 0 1.138-.215.988.988 0 0 0 .227-.321.945.945 0 0 0 .079-.379v-.966h10.905v.966c0 .263.11.514.306.7.196.186.461.29.738.29.277 0 .543-.104.739-.29a.964.964 0 0 0 .306-.7v-.966h.418c.22 0 .438-.04.642-.121.203-.08.388-.198.543-.346a1.58 1.58 0 0 0 .362-.517c.083-.193.125-.4.124-.609v-1.584a1.844 1.844 0 0 0-.155-.77 1.933 1.933 0 0 0-.466-.65L13.382 6.76v-.966a.964.964 0 0 0-.305-.7 1.075 1.075 0 0 0-.74-.29c-.276 0-.542.105-.738.29a.964.964 0 0 0-.306.7v.966H8.787Zm1.254 1.931c.66 0 1.307.186 1.857.534.55.348.978.843 1.231 1.422.253.578.32 1.215.19 1.83a3.12 3.12 0 0 1-.915 1.621 3.403 3.403 0 0 1-1.711.867c-.649.123-1.32.06-1.931-.18a3.312 3.312 0 0 1-1.5-1.167 3.05 3.05 0 0 1-.564-1.76c0-.84.352-1.645.98-2.239a3.439 3.439 0 0 1 2.363-.928Z" fill="#D22856"/>
  </symbol>
  <symbol viewBox="0 0 18 13" fill="none"  id="mail-icon">
    <path d="M14.91 1.68c1.2-.928.91-1.68-.65-1.68H3.73c-1.56 0-1.85.761-.66 1.68l3.75 2.898c.621.45 1.387.696 2.175.696.788 0 1.554-.245 2.175-.696l3.74-2.897Z" fill="#D22856"/>
    <path d="M11.91 6.5 9.7 8.246a1.13 1.13 0 0 1-.26.111l-.1.047c-.109.042-.223.07-.34.083l-.33-.056-.12-.074a1.183 1.183 0 0 1-.24-.13L6.08 6.5l-3.9-2.971C1 2.6 0 3.027 0 4.476v5.859c-.003.347.069.692.21 1.014.14.322.348.615.61.863.263.247.576.444.92.58A3.04 3.04 0 0 0 2.83 13h12.32c.376 0 .748-.07 1.095-.203.347-.134.662-.331.927-.579.265-.247.475-.541.617-.865.142-.323.214-.669.211-1.018v-5.86c0-1.448-1-1.856-2.18-.928L11.91 6.5Z" fill="#D22856"/>
  </symbol>
  <!--Ковычки и стрелки для цитаты-->
  <symbol viewBox="0 0 79 63" fill="none" id="quotes">
    <path d="M35.147 6.973 30.839 0C28.389 1.481 0 12.059 0 39.13 0 46.27.341 63 18.98 63c11.236 0 13.998-10.153 13.998-13.422 0-21.727-21.47-13.994-21.47-13.994 0-17.807 19.883-26.518 23.639-28.611ZM79 6.973 74.732 0c-2.43 1.481-30.849 12.059-30.849 39.13 0 7.14.342 23.87 18.99 23.87C74.1 63 76.86 52.847 76.86 49.578c0-21.727-21.47-13.994-21.47-13.994C55.391 17.777 75.315 9.066 79 6.973Z" fill="#EFEFEF"/>
  </symbol>
  <!--Иконка обрезки-->
  <symbol viewBox="0 0 44 44" fill="none" id="photo-crop">
    <path d="M32 28h4V12a4 4 0 0 0-4-4H16v4h16v16Zm-20 4V0H8v8H0v4h8v20a4 4 0 0 0 4 4h20v8h4v-8h8v-4H12Z" fill="#D22856"/>
  </symbol>
  <!--Иконка заливки-->
  <symbol viewBox="0 0 48 43" fill="none" id="photo-fill">
    <g opacity=".3" fill="#283645">
      <path d="M33.12 17.88 15.24 0l-2.83 2.83 4.76 4.76L6.88 17.88a3 3 0 0 0 0 4.24l11 11a3 3 0 0 0 4.24 0l11-11a3 3 0 0 0 0-4.24ZM10.41 20 20 10.42 29.59 20H10.41ZM38 23s-4 4.33-4 7a4 4 0 1 0 8 0c0-2.67-4-7-4-7ZM48 40H0v3h48v-3Z"/>
    </g>
  </symbol>
  <!--Иконка яркости-->
  <symbol viewBox="0 0 32 32" fill="none" id="photo-contrast">
    <g opacity=".3" fill="#283645">
      <path d="M16 4a12 12 0 1 1 0 24 12 12 0 0 1 0-24Zm0-4a16 16 0 1 0 0 32 16 16 0 0 0 0-32Z"/>
      <path d="M16 24.29a8.52 8.52 0 0 0 0-17"/>
    </g>
  </symbol>
  <!--Иконка лайка-->
  <symbol viewBox="0 0 13 12" fill="none" id="like">
    <path d="M6.469 12a.782.782 0 0 1-.58-.25C1.958 7.42 1.036 6.44.86 6.17A3.765 3.765 0 0 1 0 3.8a3.723 3.723 0 0 1 .63-2.045A3.921 3.921 0 0 1 2.3.355 4.09 4.09 0 0 1 4.487.035 4.031 4.031 0 0 1 6.51.9 4.08 4.08 0 0 1 9.07 0a4.013 4.013 0 0 1 2.78 1.117A3.733 3.733 0 0 1 13 3.8a3.409 3.409 0 0 1-.923 2.38l-5.038 5.56a.757.757 0 0 1-.57.25V12ZM2.073 5.28c.218.26 2.56 2.84 4.396 4.86l4.478-4.94a1.96 1.96 0 0 0 .539-1.4c0-.618-.254-1.21-.707-1.648A2.461 2.461 0 0 0 9.07 1.47c-.38.003-.756.09-1.097.252-.341.163-.64.398-.873.688a.844.844 0 0 1-.612.28.757.757 0 0 1-.332-.082.729.729 0 0 1-.258-.218 2.43 2.43 0 0 0-.868-.682 2.49 2.49 0 0 0-2.372.132 2.369 2.369 0 0 0-.882.968 2.267 2.267 0 0 0 .296 2.462v.01Z" fill="#D22856"/>
  </symbol>
</svg>
