<svg width="18" height="18" viewBox="0 0 18 18" fill="none" xmlns="http://www.w3.org/2000/svg">
<path d="M3.83356 15.8089C3.64633 15.9278 3.42471 15.9941 3.19626 15.9996C2.96782 16.0051 2.74263 15.9495 2.54872 15.8398C2.3548 15.7301 2.20072 15.571 2.10565 15.3824C2.01057 15.1938 1.97869 14.984 2.01398 14.779V4.22097C1.97869 4.01605 2.01057 3.80623 2.10565 3.61763C2.20072 3.42902 2.3548 3.26995 2.54872 3.1602C2.74263 3.05045 2.96782 2.99487 3.19626 3.00037C3.42471 3.00587 3.64633 3.07221 3.83356 3.19114L16.2333 8.69284C17.2556 9.13817 17.2556 9.86183 16.2333 10.3072L3.83356 15.8089Z" fill="#D22856"/>
</svg>
